<svg width="512" height="512" viewBox="0 0 512 512" fill="none" xmlns="http://www.w3.org/2000/svg">
<rect width="512" height="512" fill="#2C2C2C" style="fill:#2C2C2C;fill:color(display-p3 0.1725 0.1725 0.1725);fill-opacity:1;"/>
<path d="M113.806 411.941L126.586 375.533H147.636V452H133.782V428.695C133.782 417.096 133.889 404.638 134.212 390.784C132.493 396.583 130.775 401.738 128.412 408.397L112.947 452H101.026L85.4532 408.397C83.1978 401.845 81.4795 396.69 79.7611 390.998C80.0833 404.745 80.1907 417.203 80.1907 428.695V452H66.229V375.533H87.2789L100.489 412.693C102.744 419.566 105.107 427.084 107.04 433.42C108.973 426.762 111.443 418.814 113.806 411.941ZM195.016 427.621V396.583H208.548V452H195.446V443.945C191.794 449.315 185.995 453.289 178.047 453.289C166.556 453.289 158.716 446.523 158.716 433.313V396.583H172.248V431.058C172.248 438.146 175.684 441.582 182.665 441.582C188.572 441.582 195.016 437.501 195.016 427.621ZM241.348 453.504C225.56 453.504 216.861 447.812 216.002 434.387H229.212C229.964 441.368 233.508 443.838 241.563 443.838C249.403 443.838 252.517 441.368 252.517 437.179C252.517 433.205 250.047 431.272 241.67 429.876L235.334 428.802C223.412 426.762 217.183 421.499 217.183 412.048C217.183 401.631 225.346 395.294 240.166 395.294C257.243 395.294 264.223 402.705 264.653 414.089H251.873C251.551 407.001 247.147 404.96 240.166 404.96C233.615 404.96 230.501 407.43 230.501 411.404C230.501 415.485 233.723 417.096 239.737 418.17L246.718 419.244C260.035 421.607 265.942 426.547 265.942 436.105C265.942 447.275 256.813 453.504 241.348 453.504ZM298.271 453.289C281.946 453.289 270.67 442.012 270.67 424.292C270.67 406.893 281.624 395.294 298.056 395.294C315.025 395.294 325.442 407.645 325.442 425.258V428.48H283.987C285.061 438.253 290.538 442.764 298.378 442.764C304.822 442.764 309.011 439.757 310.944 434.816H324.046C321.146 445.986 311.588 453.289 298.271 453.289ZM284.094 419.029H311.91C310.836 411.189 306.003 405.819 297.949 405.819C290.753 405.819 285.383 410.008 284.094 419.029ZM359.955 453.289C343.094 453.289 331.71 441.905 331.71 424.292C331.71 406.678 343.094 395.294 359.955 395.294C376.817 395.294 388.094 406.678 388.094 424.292C388.094 441.905 376.817 453.289 359.955 453.289ZM359.955 442.119C368.655 442.119 374.347 435.998 374.347 424.292C374.347 412.585 368.655 406.464 359.955 406.464C351.149 406.464 345.564 412.585 345.564 424.292C345.564 435.998 351.149 442.119 359.955 442.119ZM426.977 395.294C438.576 395.294 446.416 402.06 446.416 415.27V452H432.884V417.525C432.884 410.437 429.34 407.001 422.467 407.001C416.56 407.001 410.116 411.082 410.116 420.962V452H396.584V396.583H409.686V404.53C413.23 399.268 419.137 395.294 426.977 395.294Z" fill="white" style="fill:white;fill-opacity:1;"/>
</svg>
